<svg width="36" height="36" viewBox="0 0 36 36" fill="none" xmlns="http://www.w3.org/2000/svg">
<g style="mix-blend-mode:plus-darker">
<path d="M20.04 15.137L19.154 12.038C18.822 10.878 17.178 10.878 16.846 12.038L15.961 15.137C15.905 15.333 15.7999 15.5115 15.6557 15.6557C15.5116 15.7999 15.333 15.9049 15.137 15.961L12.038 16.846C10.878 17.178 10.878 18.822 12.038 19.154L15.137 20.039C15.333 20.095 15.5116 20.2001 15.6557 20.3442C15.7999 20.4884 15.905 20.6669 15.961 20.863L16.846 23.962C17.178 25.122 18.822 25.122 19.154 23.962L20.039 20.863C20.095 20.6669 20.2001 20.4884 20.3443 20.3442C20.4884 20.2001 20.667 20.095 20.863 20.039L23.962 19.154C25.122 18.822 25.122 17.178 23.962 16.846L20.863 15.961C20.667 15.9049 20.4884 15.7999 20.3443 15.6557C20.2001 15.5115 20.095 15.333 20.039 15.137M11.896 22.507C11.607 21.663 10.392 21.663 10.104 22.507L10.079 22.594L9.782 23.782L8.594 24.078C7.635 24.318 7.634 25.681 8.594 25.921L9.782 26.218L10.079 27.406C10.319 28.365 11.681 28.365 11.921 27.406L12.218 26.218L13.406 25.921C14.366 25.681 14.366 24.318 13.406 24.078L12.218 23.782L11.921 22.594L11.896 22.507ZM11 24.797C11.0579 24.8738 11.1266 24.9418 11.204 24.999C11.1265 25.0568 11.0578 25.1255 11 25.203C10.9425 25.1255 10.8741 25.0568 10.797 24.999C10.8741 24.9414 10.9424 24.8731 11 24.796M25.896 8.50598C25.598 7.63498 24.311 7.66398 24.079 8.59298L23.782 9.78098L22.594 10.078C21.635 10.318 21.634 11.68 22.594 11.92L23.782 12.217L24.079 13.405C24.319 14.364 25.681 14.364 25.921 13.405L26.218 12.217L27.406 11.92C28.366 11.68 28.366 10.317 27.406 10.078L26.218 9.78098L25.921 8.59298L25.896 8.50598ZM25 10.797C25.0579 10.8738 25.1266 10.9418 25.204 10.999C25.1265 11.0568 25.0578 11.1255 25 11.203C24.9425 11.1255 24.8741 11.0568 24.797 10.999C24.8741 10.9414 24.9424 10.8741 25 10.797Z" fill="black"/>
</g>
</svg>
