<svg width="60" height="28" viewBox="0 0 60 28" fill="none" xmlns="http://www.w3.org/2000/svg">
<path fill-rule="evenodd" clip-rule="evenodd" d="M31.984 4.542C32.071 4.711 32.093 4.928 32.136 5.362C32.218 6.182 32.259 6.592 32.431 6.818C32.5382 6.95832 32.6806 7.06777 32.8437 7.13522C33.0069 7.20266 33.185 7.2257 33.36 7.202C33.64 7.165 33.96 6.904 34.598 6.382C34.935 6.105 35.104 5.967 35.285 5.909C35.5155 5.83534 35.7649 5.84777 35.987 5.944C36.162 6.02 36.317 6.174 36.624 6.482L37.518 7.376C37.826 7.684 37.98 7.838 38.056 8.013C38.1522 8.23506 38.1647 8.48447 38.091 8.715C38.033 8.896 37.895 9.065 37.619 9.402C37.096 10.041 36.835 10.36 36.797 10.641C36.7736 10.8159 36.7969 10.9939 36.8645 11.1569C36.9321 11.3198 37.0417 11.462 37.182 11.569C37.407 11.741 37.818 11.782 38.639 11.864C39.072 11.907 39.289 11.929 39.459 12.016C39.6735 12.1272 39.8404 12.3123 39.929 12.537C40 12.714 40 12.932 40 13.368V14.632C40 15.068 40 15.286 39.93 15.462C39.8411 15.6874 39.6734 15.8729 39.458 15.984C39.289 16.071 39.072 16.093 38.638 16.136C37.818 16.218 37.408 16.259 37.182 16.431C37.0417 16.5382 36.9322 16.6806 36.8648 16.8437C36.7973 17.0069 36.7743 17.185 36.798 17.36C36.836 17.64 37.097 17.96 37.619 18.598C37.895 18.935 38.033 19.103 38.091 19.285C38.1647 19.5155 38.1522 19.7649 38.056 19.987C37.98 20.162 37.826 20.316 37.518 20.624L36.624 21.517C36.316 21.826 36.162 21.98 35.987 22.055C35.7649 22.1512 35.5155 22.1637 35.285 22.09C35.104 22.032 34.935 21.894 34.598 21.618C33.959 21.096 33.64 20.835 33.36 20.798C33.185 20.7743 33.0069 20.7973 32.8437 20.8648C32.6806 20.9322 32.5382 21.0417 32.431 21.182C32.259 21.407 32.218 21.817 32.136 22.638C32.093 23.072 32.071 23.289 31.984 23.458C31.8732 23.6732 31.6881 23.8409 31.463 23.93C31.286 24 31.068 24 30.632 24H29.368C28.932 24 28.714 24 28.538 23.93C28.3126 23.8411 28.1271 23.6734 28.016 23.458C27.929 23.289 27.907 23.072 27.864 22.638C27.782 21.818 27.741 21.408 27.569 21.182C27.4619 21.0418 27.3197 20.9325 27.1567 20.8651C26.9937 20.7976 26.8158 20.7745 26.641 20.798C26.36 20.835 26.041 21.096 25.402 21.618C25.065 21.895 24.896 22.033 24.715 22.091C24.4845 22.1647 24.2351 22.1522 24.013 22.056C23.838 21.98 23.683 21.826 23.376 21.518L22.482 20.624C22.174 20.316 22.02 20.162 21.944 19.987C21.8478 19.7649 21.8353 19.5155 21.909 19.285C21.967 19.104 22.105 18.935 22.381 18.598C22.904 17.959 23.165 17.64 23.202 17.359C23.2255 17.1842 23.2024 17.0063 23.1349 16.8433C23.0675 16.6803 22.9582 16.5381 22.818 16.431C22.593 16.259 22.182 16.218 21.361 16.136C20.928 16.093 20.711 16.071 20.541 15.984C20.3265 15.8728 20.1596 15.6877 20.071 15.463C20 15.286 20 15.068 20 14.632V13.368C20 12.932 20 12.714 20.07 12.538C20.1589 12.3126 20.3266 12.1271 20.542 12.016C20.711 11.929 20.928 11.907 21.362 11.864C22.182 11.782 22.593 11.741 22.818 11.569C22.9583 11.462 23.0679 11.3198 23.1355 11.1569C23.2031 10.9939 23.2264 10.8159 23.203 10.641C23.165 10.36 22.903 10.041 22.381 9.401C22.105 9.064 21.967 8.896 21.909 8.714C21.8353 8.48347 21.8478 8.23406 21.944 8.012C22.02 7.838 22.174 7.683 22.482 7.375L23.376 6.482C23.684 6.174 23.838 6.019 24.013 5.944C24.2351 5.84777 24.4845 5.83534 24.715 5.909C24.896 5.967 25.065 6.105 25.402 6.381C26.041 6.903 26.36 7.164 26.64 7.202C26.8152 7.22578 26.9936 7.20267 27.157 7.13504C27.3203 7.06741 27.4629 6.95766 27.57 6.817C27.74 6.592 27.782 6.182 27.864 5.361C27.907 4.928 27.929 4.711 28.016 4.541C28.127 4.32617 28.3121 4.15884 28.537 4.07C28.714 4 28.932 4 29.368 4H30.632C31.068 4 31.286 4 31.462 4.07C31.6874 4.15889 31.8729 4.32661 31.984 4.542ZM30 18C31.0609 18 32.0783 17.5786 32.8284 16.8284C33.5786 16.0783 34 15.0609 34 14C34 12.9391 33.5786 11.9217 32.8284 11.1716C32.0783 10.4214 31.0609 10 30 10C28.9391 10 27.9217 10.4214 27.1716 11.1716C26.4214 11.9217 26 12.9391 26 14C26 15.0609 26.4214 16.0783 27.1716 16.8284C27.9217 17.5786 28.9391 18 30 18Z" fill="black"/>
</svg>
