<svg width="54" height="54" viewBox="0 0 54 54" fill="none" xmlns="http://www.w3.org/2000/svg">
<path d="M34.7143 27.7143H28.2857V33.7857C28.2857 34.1078 28.1503 34.4166 27.9091 34.6443C27.668 34.8721 27.341 35 27 35C26.659 35 26.332 34.8721 26.0909 34.6443C25.8497 34.4166 25.7143 34.1078 25.7143 33.7857V27.7143H19.2857C18.9447 27.7143 18.6177 27.5864 18.3766 27.3586C18.1355 27.1309 18 26.822 18 26.5C18 26.178 18.1355 25.8691 18.3766 25.6414C18.6177 25.4136 18.9447 25.2857 19.2857 25.2857H25.7143V19.2143C25.7143 18.8922 25.8497 18.5834 26.0909 18.3557C26.332 18.1279 26.659 18 27 18C27.341 18 27.668 18.1279 27.9091 18.3557C28.1503 18.5834 28.2857 18.8922 28.2857 19.2143V25.2857H34.7143C35.0553 25.2857 35.3823 25.4136 35.6234 25.6414C35.8645 25.8691 36 26.178 36 26.5C36 26.822 35.8645 27.1309 35.6234 27.3586C35.3823 27.5864 35.0553 27.7143 34.7143 27.7143Z" fill="black"/>
</svg>
