<svg width="60" height="28" viewBox="0 0 60 28" fill="none" xmlns="http://www.w3.org/2000/svg">
<path d="M20.3334 7.125C20.3334 6.2962 20.6791 5.50134 21.2944 4.91529C21.9098 4.32924 22.7444 4 23.6146 4H25.5834V7.125C25.5834 7.62228 25.7908 8.09919 26.16 8.45083C26.5292 8.80246 27.03 9 27.5521 9H37.3959V17.125C37.3959 17.9538 37.0502 18.7487 36.4348 19.3347C35.8195 19.9208 34.9849 20.25 34.1146 20.25H23.6146C22.7444 20.25 21.9098 19.9208 21.2944 19.3347C20.6791 18.7487 20.3334 17.9538 20.3334 17.125V7.125ZM26.8959 7.125V4H34.1146C34.9849 4 35.8195 4.32924 36.4348 4.91529C37.0502 5.50134 37.3959 6.2962 37.3959 7.125V7.75H27.5521C27.3781 7.75 27.2112 7.68415 27.0881 7.56694C26.965 7.44973 26.8959 7.29076 26.8959 7.125ZM27.5521 24C26.7957 24.0001 26.0624 23.7514 25.4765 23.2958C24.8905 22.8402 24.4878 22.2059 24.3365 21.5H34.1146C35.333 21.5 36.5014 21.0391 37.3629 20.2186C38.2244 19.3981 38.7084 18.2853 38.7084 17.125V7.8125C39.4495 7.95658 40.1156 8.34011 40.594 8.89819C41.0723 9.45626 41.3335 10.1546 41.3334 10.875V19C41.3334 20.3261 40.7802 21.5979 39.7957 22.5355C38.8111 23.4732 37.4758 24 36.0834 24H27.5521Z" fill="black"/>
</svg>
