<svg width="36" height="36" viewBox="0 0 36 36" fill="none" xmlns="http://www.w3.org/2000/svg">
<g style="mix-blend-mode:plus-darker">
<path d="M28.314 26.9L26.899 28.313L24.071 25.485L25.485 24.071L28.314 26.9ZM17 8.00002C17.2614 8.00064 17.5226 8.01265 17.783 8.03602C17.437 8.6455 17.2004 9.31089 17.084 10.002L17 10C13.133 10 10 13.133 10 17C10 20.867 13.133 24 17 24C20.867 24 24 20.867 24 17L23.997 16.915C24.6882 16.7983 25.3536 16.5614 25.963 16.215C25.985 16.475 26 16.735 26 17C26 21.968 21.968 26 17 26C12.032 26 8 21.968 8 17C8 12.032 12.032 8.00002 17 8.00002ZM22.53 7.32002C22.5675 7.226 22.6323 7.14539 22.7161 7.08861C22.7999 7.03182 22.8988 7.00146 23 7.00146C23.1012 7.00146 23.2001 7.03182 23.2839 7.08861C23.3677 7.14539 23.4325 7.226 23.47 7.32002L23.724 7.93002C24.1485 8.9651 24.9538 9.79795 25.974 10.257L26.692 10.577C26.7838 10.6195 26.8615 10.6874 26.916 10.7726C26.9705 10.8578 26.9994 10.9569 26.9994 11.058C26.9994 11.1592 26.9705 11.2582 26.916 11.3434C26.8615 11.4287 26.7838 11.4965 26.692 11.539L25.932 11.877C24.9374 12.3233 24.146 13.1261 23.714 14.127L23.467 14.693C23.4286 14.7852 23.3637 14.8639 23.2806 14.9193C23.1975 14.9747 23.0999 15.0042 23 15.0042C22.9001 15.0042 22.8025 14.9747 22.7194 14.9193C22.6363 14.8639 22.5714 14.7852 22.533 14.693L22.287 14.128C21.8547 13.1264 21.0626 12.3232 20.067 11.877L19.307 11.539C19.2149 11.4967 19.1369 11.4288 19.0822 11.3434C19.0276 11.2581 18.9985 11.1589 18.9985 11.0575C18.9985 10.9562 19.0276 10.8569 19.0822 10.7716C19.1369 10.6862 19.2149 10.6184 19.307 10.576L20.025 10.256C21.0452 9.79764 21.8508 8.96552 22.276 7.93102L22.53 7.32002Z" fill="black"/>
</g>
</svg>
